<svg xmlns="http://www.w3.org/2000/svg" width="65" height="65" viewBox="0 0 65 65">
  <g id="Group_7675" data-name="Group 7675" transform="translate(-793 -730)">
    <circle id="Ellipse_1223" data-name="Ellipse 1223" cx="32.5" cy="32.5" r="32.5" transform="translate(793 730)" fill="#fff"/>
    <g id="email" transform="translate(808 718.244)">
      <g id="Group_7632" data-name="Group 7632" transform="translate(0 28.756)">
        <g id="Group_7631" data-name="Group 7631" transform="translate(0 0)">
          <path id="Path_12890" data-name="Path 12890" d="M35.328,38.71l-5.14-3.631v-5.3a1.142,1.142,0,0,0-.979-1.02H6.69a1.142,1.142,0,0,0-.979,1.02v5.262L.367,38.71A.9.9,0,0,0,0,39.362V58.74a1.183,1.183,0,0,0,1.02,1.02H34.879c.449,0,.612-.53.612-1.02V39.362C35.491,39.118,35.532,38.873,35.328,38.71Zm-5.14-1.673L33.7,39.444,30.188,42.1ZM7.343,30.388H28.556V43.36l-10.606,8-10.606-8V30.388ZM5.711,37v5.14L2.2,39.444Zm-4.079,4.12,11.422,8.648L1.632,57.475ZM3.59,58.128l10.851-7.3,2.9,2.2a.979.979,0,0,0,.571.2c.163,0,.245-.082.408-.2L21.335,50.7l10.974,7.425Zm30.269-.938L22.681,49.683l11.178-8.567Z" transform="translate(0 -28.756)" fill="#58798a"/>
          <path id="Path_12891" data-name="Path 12891" d="M136.653,98.306h3.671a.816.816,0,0,0,0-1.632h-3.671a.816.816,0,1,0,0,1.632Z" transform="translate(-125.231 -91.371)" fill="#58798a"/>
          <path id="Path_12892" data-name="Path 12892" d="M136.653,145.327h13.054a.816.816,0,1,0,0-1.632H136.653a.816.816,0,1,0,0,1.632Z" transform="translate(-125.231 -134.72)" fill="#58798a"/>
          <path id="Path_12893" data-name="Path 12893" d="M150.523,191.531a.816.816,0,0,0-.816-.816H136.653a.816.816,0,1,0,0,1.632h13.054A.816.816,0,0,0,150.523,191.531Z" transform="translate(-125.231 -178.069)" fill="#58798a"/>
        </g>
      </g>
    </g>
  </g>
</svg>
