<svg xmlns="http://www.w3.org/2000/svg" width="29.806" height="29.735" viewBox="0 0 29.806 29.735">
  <g id="paper_1_" data-name="paper (1)" transform="translate(0.25 0.25)">
    <path id="Path_12932" data-name="Path 12932" d="M18.091,24.181a6.091,6.091,0,1,1,6.091-6.091A6.1,6.1,0,0,1,18.091,24.181Zm0-10.354a4.263,4.263,0,1,0,4.263,4.263A4.268,4.268,0,0,0,18.091,13.827Z" transform="translate(2.617 2.617)" fill="#fff" stroke="#fff" stroke-width="0.5"/>
    <path id="Path_12933" data-name="Path 12933" d="M24.122,25.036a.906.906,0,0,1-.646-.268l-3.959-3.959a.914.914,0,1,1,1.292-1.292l3.959,3.959a.914.914,0,0,1-.647,1.56Z" transform="translate(4.199 4.199)" fill="#fff" stroke="#fff" stroke-width="0.5"/>
    <path id="Path_12934" data-name="Path 12934" d="M12.827,25.581H3.35A3.353,3.353,0,0,1,0,22.231V3.35A3.353,3.353,0,0,1,3.35,0H17.358a3.353,3.353,0,0,1,3.35,3.35v8.576a.914.914,0,1,1-1.827,0V3.35a1.525,1.525,0,0,0-1.523-1.523H3.35A1.525,1.525,0,0,0,1.827,3.35V22.231A1.525,1.525,0,0,0,3.35,23.753h9.477a.914.914,0,0,1,0,1.827Z" transform="translate(0)" fill="#fff" stroke="#fff" stroke-width="0.5"/>
    <path id="Path_12935" data-name="Path 12935" d="M15.486,9.827H3.914A.914.914,0,0,1,3.914,8H15.486a.914.914,0,0,1,0,1.827Z" transform="translate(0.654 1.745)" fill="#fff" stroke="#fff" stroke-width="0.5"/>
    <path id="Path_12936" data-name="Path 12936" d="M10.613,13.827h-6.7a.914.914,0,1,1,0-1.827h6.7a.914.914,0,1,1,0,1.827Z" transform="translate(0.654 2.617)" fill="#fff" stroke="#fff" stroke-width="0.5"/>
    <path id="Path_12937" data-name="Path 12937" d="M9.4,5.827H3.914A.914.914,0,0,1,3.914,4H9.4a.914.914,0,0,1,0,1.827Z" transform="translate(0.654 0.872)" fill="#fff" stroke="#fff" stroke-width="0.5"/>
  </g>
</svg>
