<svg xmlns="http://www.w3.org/2000/svg" width="65" height="65" viewBox="0 0 65 65">
  <g id="Group_7686" data-name="Group 7686" transform="translate(-793 -784)">
    <circle id="Ellipse_1223" data-name="Ellipse 1223" cx="32.5" cy="32.5" r="32.5" transform="translate(793 784)" fill="#fff"/>
    <g id="Group_7630" data-name="Group 7630" transform="translate(3.17 -88.332)">
      <g id="curve-arrows" transform="translate(798.174 882)">
        <path id="Path_12884" data-name="Path 12884" d="M22.766,59.687l-.065,0A22.879,22.879,0,0,1,2.112,43.049l-.08.3a1.033,1.033,0,1,1-2-.535l1.3-4.833a1.034,1.034,0,0,1,2.037.2,20.806,20.806,0,0,0,19.461,19.44,1.033,1.033,0,0,1-.063,2.065ZM45.931,36.52a1.033,1.033,0,0,1-1.03-.969A20.807,20.807,0,0,0,25.437,16.088a1.033,1.033,0,1,1,.129-2.063A22.878,22.878,0,0,1,46.171,30.718l.107-.4a1.033,1.033,0,0,1,2,.535l-1.3,4.856a1.132,1.132,0,0,1-.977.807Z" transform="translate(0 -14.023)" fill="#58798a"/>
      </g>
      <g id="google-docs" transform="translate(811.293 889.525)">
        <path id="Path_12885" data-name="Path 12885" d="M82.824,7.04,76.032.249a.85.85,0,0,0-.6-.249H63.547A2.55,2.55,0,0,0,61,2.547V26.43a2.55,2.55,0,0,0,2.547,2.547H80.526a2.55,2.55,0,0,0,2.547-2.547V7.64A.857.857,0,0,0,82.824,7.04ZM76.281,2.9l3.893,3.893H77.13a.85.85,0,0,1-.849-.849Zm4.245,24.381H63.547a.85.85,0,0,1-.849-.849V2.547a.85.85,0,0,1,.849-.849H74.583V5.943A2.55,2.55,0,0,0,77.13,8.489h4.245V26.43A.85.85,0,0,1,80.526,27.279Z" transform="translate(-61 0)" fill="#58798a"/>
        <path id="Path_12886" data-name="Path 12886" d="M162.036,212H151.849a.849.849,0,0,0,0,1.7h10.187a.849.849,0,1,0,0-1.7Z" transform="translate(-145.906 -200.002)" fill="#58798a"/>
        <path id="Path_12887" data-name="Path 12887" d="M162.036,272H151.849a.849.849,0,0,0,0,1.7h10.187a.849.849,0,0,0,0-1.7Z" transform="translate(-145.906 -256.606)" fill="#58798a"/>
        <path id="Path_12888" data-name="Path 12888" d="M162.036,332H151.849a.849.849,0,0,0,0,1.7h10.187a.849.849,0,1,0,0-1.7Z" transform="translate(-145.906 -313.21)" fill="#58798a"/>
        <path id="Path_12889" data-name="Path 12889" d="M158.64,392h-6.792a.849.849,0,0,0,0,1.7h6.792a.849.849,0,0,0,0-1.7Z" transform="translate(-145.906 -369.814)" fill="#58798a"/>
      </g>
    </g>
  </g>
</svg>
